<?xml version="1.0" encoding="iso-8859-1"?>
<!-- Uploaded to: SVG Repo, www.svgrepo.com, Generator: SVG Repo Mixer Tools -->
<svg fill="#000000" height="800px" width="800px" version="1.1" id="Capa_1" xmlns="http://www.w3.org/2000/svg" xmlns:xlink="http://www.w3.org/1999/xlink" 
	 viewBox="0 0 429.601 429.601" xml:space="preserve">
<path id="XMLID_421_" d="M273.073,371.694c3.905,3.905,3.905,10.237,0,14.142c-3.906,3.905-10.237,3.905-14.143,0l-34.129-34.13
	v67.895c0,5.523-4.477,10-10,10s-10-4.477-10-10v-67.894l-34.131,34.129c-3.904,3.905-10.237,3.906-14.142,0
	c-3.905-3.905-3.905-10.237,0-14.142l51.203-51.2c3.905-3.904,10.236-3.904,14.142,0L273.073,371.694z M204.801,261.859V96.8
	h-41.202c-3.688,0-7.077-2.03-8.817-5.282c-1.74-3.251-1.549-7.197,0.497-10.266l51.203-76.8C208.336,1.671,211.458,0,214.802,0
	c3.344,0,6.466,1.671,8.32,4.453l51.2,76.8c2.046,3.068,2.237,7.014,0.497,10.266c-1.74,3.251-5.129,5.281-8.817,5.281h-41.201
	v165.057l48.272,48.272c3.905,3.905,3.905,10.237,0,14.142c-1.953,1.953-4.512,2.929-7.071,2.929s-5.119-0.976-7.071-2.929
	l-44.128-44.129l-44.132,44.129c-3.904,3.905-10.237,3.906-14.142,0c-3.905-3.905-3.905-10.237,0-14.142L204.801,261.859z
	 M247.316,76.8l-32.515-48.773L182.285,76.8H247.316z"/>
</svg>